# xmcd CD database file
#
# Track frame offsets:
#	182
#	26850
#	50165
#	64640
#	80502
#	104462
#	120352
#	132440
#	143962
#	160897
#	172537
#	188287
#	206995
#	215025
#
# Disc length: 3076 seconds
#
# Revision: 1
# Processed by: cddbd v1.5.2PL0 Copyright (c) Steve Scherf et al.
# Submitted via: jetAudio 7
#
DISCID=c80c020e
DTITLE=Tommy And Shaun Dell - (012) Old Doc
DYEAR=1900
DGENRE=CD No 012
TTITLE0=Old Doc
TTITLE1=Teddy Bear
TTITLE2=Little Rosa
TTITLE3=Please Mr Barman
TTITLE4=To A Sleeping Beuty
TTITLE5=I Love you South Africa
TTITLE6=To Daddy
TTITLE7=Stand Up
TTITLE8=Jesse
TTITLE9=One Night
TTITLE10=Love Is All Around
TTITLE11=Fight Fire With Fire
TTITLE12=Let Me Be Your Teddy Bear
TTITLE13=On Top Of Old Smokey
EXTD=
EXTT0=
EXTT1=
EXTT2=
EXTT3=
EXTT4=
EXTT5=
EXTT6=
EXTT7=
EXTT8=
EXTT9=
EXTT10=
EXTT11=
EXTT12=
EXTT13=
PLAYORDER=
